<svg xmlns="http://www.w3.org/2000/svg" width="30.869" height="36" viewBox="0 0 30.869 36">
  <path id="Icon_awesome-android" data-name="Icon awesome-android" d="M6.88,16.117v9.309A2.2,2.2,0,0,1,4.67,27.653a2.4,2.4,0,0,1-2.42-2.227V16.117a2.4,2.4,0,0,1,2.42-2.211A2.22,2.22,0,0,1,6.88,16.117Zm.868,12.621a2.374,2.374,0,0,0,2.379,2.379h1.6l.024,4.912a2.219,2.219,0,0,0,4.437,0V31.118h2.99v4.912a2.231,2.231,0,0,0,4.461,0V31.118h1.624a2.371,2.371,0,0,0,2.363-2.379V14.317H7.748V28.738Zm19.936-15.2H7.66a9.035,9.035,0,0,1,5.113-7.99L11.237,2.709a.31.31,0,1,1,.539-.305l1.56,2.862a10.861,10.861,0,0,1,8.706,0l1.551-2.854a.31.31,0,1,1,.539.305L22.6,5.547a9.056,9.056,0,0,1,5.088,7.99ZM13.962,9.076a.844.844,0,0,0-.844-.844.844.844,0,0,0,0,1.688A.844.844,0,0,0,13.962,9.076Zm9.116,0a.832.832,0,1,0-.82.844A.839.839,0,0,0,23.078,9.076ZM30.7,13.907a2.2,2.2,0,0,0-2.211,2.211v9.309A2.218,2.218,0,0,0,30.7,27.653a2.394,2.394,0,0,0,2.42-2.227V16.117A2.38,2.38,0,0,0,30.7,13.907Z" transform="translate(-2.25 -2.245)" fill="#999"/>
</svg>
