<svg xmlns="http://www.w3.org/2000/svg" width="30.252" height="36" viewBox="0 0 30.252 36">
  <path id="Icon_awesome-apple" data-name="Icon awesome-apple" d="M25.574,21.274a7.5,7.5,0,0,1,4.019-6.816,8.635,8.635,0,0,0-6.807-3.585c-2.853-.225-5.972,1.664-7.113,1.664-1.206,0-3.97-1.583-6.14-1.583C5.047,11.027.281,14.531.281,21.66a20.032,20.032,0,0,0,1.157,6.526c1.029,2.95,4.742,10.183,8.616,10.063,2.025-.048,3.456-1.439,6.092-1.439,2.556,0,3.882,1.439,6.14,1.439,3.906-.056,7.266-6.631,8.246-9.588a7.967,7.967,0,0,1-4.959-7.386Zm-4.549-13.2A7.57,7.57,0,0,0,22.954,2.25a8.522,8.522,0,0,0-5.457,2.8,7.688,7.688,0,0,0-2.058,5.779c2.1.161,4.011-.916,5.586-2.757Z" transform="translate(-0.281 -2.25)" fill="#999"/>
</svg>
