<svg xmlns="http://www.w3.org/2000/svg" xmlns:xlink="http://www.w3.org/1999/xlink" width="29.383" height="24" viewBox="0 0 29.383 24">
  <defs>
    <clipPath id="clip-path">
      <rect id="Rectangle_2" data-name="Rectangle 2" width="29.383" height="24" transform="translate(0 0)" fill="#58595b"/>
    </clipPath>
  </defs>
  <g id="Group_4" data-name="Group 4" transform="translate(0 0)">
    <g id="Group_3" data-name="Group 3" transform="translate(0 0)" clip-path="url(#clip-path)">
      <path id="Path_2" data-name="Path 2" d="M29.321,19.578a.2.2,0,0,0-.064-.038l-1.025-.013c-1.173-.048-1.417-1.217-1.563-1.666l-.52-2.189-.141-.644L22.7,1.011C22.639.735,22.44-.01,21.811,0a.954.954,0,0,0-.824.614L14.792,11.937,8.493.634c-.284-.5-.557-.628-.87-.628-.395,0-.7.233-.811.811-.046.282-.926,4.01-1.7,7.3-.486,2.059-.987,4.181-1.373,5.833,0,0-.759,3.3-.99,4-.308.926-.885,1.563-2.658,1.644-.077,0-.155.154,0,.231H7.061a.115.115,0,1,0,0-.231c-.154,0-2.1.271-1.559-1.732.155-.694.694-2.874.694-2.874L8.3,6.1c.889,1.618,2.25,4.019,2.431,4.328.281.6,1.819,3.293,2.518,4.421a12.558,12.558,0,0,0-1.566,4.171,5.234,5.234,0,0,0,.876,3.846A3,3,0,0,0,14.692,24l.162,0A3.141,3.141,0,0,0,17.19,22.99a4.518,4.518,0,0,0,1.041-3.9c-.206-1.583-1.8-4.191-2.364-5.078l4.511-8.183,2.407,9.327.111.436s.672,2.506.672,2.815c0,.54-.183,1.194-1.647,1.194-.077,0-.154.154,0,.231l7.412.013a.191.191,0,0,0-.013-.27M15.465,22.294a1.4,1.4,0,0,1-.976.713A1.408,1.408,0,0,1,13.4,22.6a2.861,2.861,0,0,1-.619-2.011A5.045,5.045,0,0,1,14.33,17.07a8.7,8.7,0,0,1,1.418,3.38,2.669,2.669,0,0,1-.283,1.844" transform="translate(0 0)" fill="#58595b"/>
    </g>
  </g>
</svg>
