<svg xmlns="http://www.w3.org/2000/svg" xmlns:xlink="http://www.w3.org/1999/xlink" width="41" height="25" viewBox="0 0 41 25">
  <defs>
    <clipPath id="clip-_9B2325">
      <rect width="41" height="25"/>
    </clipPath>
  </defs>
  <g id="_9B2325" data-name="#9B2325" clip-path="url(#clip-_9B2325)">
    <g id="Group_8" data-name="Group 8" transform="translate(-866.108 586.583)">
      <path id="Path_11" data-name="Path 11" d="M793.219,19.244a.993.993,0,0,0,.753,1.022,1.934,1.934,0,0,1-.357-.975c0-.485.49-.612.813-.612a1.1,1.1,0,0,1,.948,1.224,3.469,3.469,0,0,1-3.362,2.905,5.231,5.231,0,0,1-3.475-1.271,4.614,4.614,0,0,1-3.6,1.809,3.828,3.828,0,0,1-3.987-3.177c0-1.344.773-2.112,1.647-2.085a1.231,1.231,0,0,1,1.23,1.157.993.993,0,0,1-.754,1.022,1.935,1.935,0,0,0,.357-.975c0-.485-.491-.612-.813-.612a1.1,1.1,0,0,0-.948,1.224,3.476,3.476,0,0,0,3.362,2.905,5.263,5.263,0,0,0,3.483-1.271,4.592,4.592,0,0,0,3.591,1.809,3.828,3.828,0,0,0,3.988-3.177c0-1.345-.774-2.112-1.647-2.085A1.23,1.23,0,0,0,793.219,19.244Zm0-14.611a1,1,0,0,1,.753-1.029,1.96,1.96,0,0,0-.357.975c0,.491.49.612.813.612a1.092,1.092,0,0,0,.948-1.217,3.469,3.469,0,0,0-3.362-2.905,5.245,5.245,0,0,0-3.475,1.264,4.614,4.614,0,0,0-3.6-1.8,3.823,3.823,0,0,0-3.987,3.177c0,1.344.773,2.112,1.647,2.085a1.237,1.237,0,0,0,1.23-1.157,1,1,0,0,0-.754-1.029,1.962,1.962,0,0,1,.357.975c0,.491-.491.612-.813.612a1.093,1.093,0,0,1-.948-1.217,3.469,3.469,0,0,1,3.362-2.905,5.271,5.271,0,0,1,3.483,1.264,4.593,4.593,0,0,1,3.591-1.8A3.823,3.823,0,0,1,796.1,3.71c0,1.344-.774,2.112-1.647,2.085A1.237,1.237,0,0,1,793.219,4.633Zm.726-4.176a4.2,4.2,0,0,0-1.95-.289,3.5,3.5,0,0,1,2.132,0c1,.242,3.006,1.9,3.98,2.757a4.679,4.679,0,0,0,3.362,1.54,2.689,2.689,0,0,0,2.226-1.39A2.865,2.865,0,0,1,802.64,4.9a3.281,3.281,0,0,1,1.191,1.6c2.5,0,4.034,2.421,4.155,5.42-.087,3-1.654,5.447-4.155,5.426a3.317,3.317,0,0,1-1.191,1.6,2.83,2.83,0,0,1,1.055,1.822,2.689,2.689,0,0,0-2.226-1.39,4.733,4.733,0,0,0-3.362,1.533c-.993.861-2.979,2.515-3.98,2.757a3.457,3.457,0,0,1-2.132,0,4.266,4.266,0,0,0,1.95-.3,13.483,13.483,0,0,0,3.82-3.177c1.433-1.513,2.367-1.755,3.575-1.735a2.63,2.63,0,0,1,.4.047,1.887,1.887,0,0,0,1.533-1.3,4.7,4.7,0,0,1-1.688-1.177v-.538a2.825,2.825,0,0,0,2.018.888,3.424,3.424,0,0,0,.114-1.513,1.278,1.278,0,0,1-1.513-1.661c.114-.276.235-.242.376-.3.733-.114.982.565,1.251,1.048.3.068,1.015-.524,1.251-.9a2.618,2.618,0,0,0,.37-1.116,2.592,2.592,0,0,0-.37-1.109c-.236-.383-.955-.968-1.251-.908-.269.491-.517,1.17-1.251,1.048-.141-.047-.262,0-.376-.3a1.278,1.278,0,0,1,1.513-1.654,3.422,3.422,0,0,0-.114-1.513,2.8,2.8,0,0,0-2.018.888V7.808a4.7,4.7,0,0,1,1.688-1.177,1.886,1.886,0,0,0-1.533-1.312,1.584,1.584,0,0,1-.4.046,4.293,4.293,0,0,1-3.575-1.729,13.641,13.641,0,0,0-3.82-3.187Zm13.515,11.477a5.786,5.786,0,0,0-.175-1.21,4.035,4.035,0,0,0-3.262-3.207,4.234,4.234,0,0,1,0,1.567,3.093,3.093,0,0,1,0,5.709,4.2,4.2,0,0,1,0,1.56,4.034,4.034,0,0,0,3.262-3.2,5.781,5.781,0,0,0,.175-1.217m-4.034-2.118c-.363-.068-.834,0-.747.585.317.452.673-.267.747-.584ZM783.086.456a4.192,4.192,0,0,1,1.95-.289,3.5,3.5,0,0,0-2.132,0c-1,.242-3.005,1.9-3.981,2.757a4.677,4.677,0,0,1-3.362,1.54,2.69,2.69,0,0,1-2.226-1.39A2.866,2.866,0,0,0,774.391,4.9,3.278,3.278,0,0,0,773.2,6.5c-2.5,0-4.071,2.421-4.155,5.42.087,3,1.654,5.447,4.155,5.426a3.316,3.316,0,0,0,1.2,1.6,2.829,2.829,0,0,0-1.056,1.822,2.689,2.689,0,0,1,2.226-1.39,4.721,4.721,0,0,1,3.362,1.533c.993.861,2.979,2.515,3.981,2.757a3.456,3.456,0,0,0,2.132,0,4.263,4.263,0,0,1-1.95-.3,13.484,13.484,0,0,1-3.82-3.177c-1.433-1.513-2.367-1.756-3.575-1.735a2.746,2.746,0,0,0-.4.046,1.886,1.886,0,0,1-1.533-1.3,4.8,4.8,0,0,0,1.755-1.244v-.578a2.831,2.831,0,0,1-2.091.955,3.421,3.421,0,0,1-.114-1.513,1.278,1.278,0,0,0,1.513-1.661c-.114-.276-.235-.242-.376-.3-.733-.114-.982.565-1.251,1.049-.3.068-1.016-.524-1.251-.9a2.613,2.613,0,0,1-.37-1.116,2.585,2.585,0,0,1,.37-1.109c.235-.383.955-.968,1.251-.907.269.49.517,1.17,1.251,1.048.141-.047.262,0,.376-.3a1.278,1.278,0,0,0-1.513-1.654,3.522,3.522,0,0,1,.114-1.513,2.832,2.832,0,0,1,2.091.955V7.835a4.8,4.8,0,0,0-1.755-1.244,1.886,1.886,0,0,1,1.523-1.31,1.653,1.653,0,0,0,.4.046A4.293,4.293,0,0,0,779.261,3.6a13.647,13.647,0,0,1,3.82-3.187ZM769.57,11.933a6.237,6.237,0,0,1,.175-1.21,4.034,4.034,0,0,1,3.261-3.207,4.245,4.245,0,0,0,0,1.567,3.093,3.093,0,0,0,0,5.709,4.207,4.207,0,0,0,0,1.56,4.035,4.035,0,0,1-3.261-3.2,6.223,6.223,0,0,1-.175-1.217M773.6,9.816c.363-.068.834,0,.747.585-.316.452-.672-.267-.746-.584Zm0,4.237c.363.074.834.041.747-.578-.316-.457-.672.27-.746.579Zm29.809,0c-.363.074-.834.041-.747-.578.32-.457.673.27.747.579Z" transform="translate(98.064 -586)" fill="#9b2325" fill-rule="evenodd"/>
      <path id="Path_12" data-name="Path 12" d="M811.18,39.872l1.17-2.891c.2-.5.565-1.446,1.082-2.838h.323c.2.625.464,1.419.8,2.374l1.224,3.422.921-3.2c.088-.3.242-.894.457-1.768a.8.8,0,0,0,0-.189.154.154,0,0,0-.074-.141,1.229,1.229,0,0,0-.369-.074l-.464-.034V34.21h2.192v.323h-.262a.364.364,0,0,0-.255.08,11.153,11.153,0,0,0-.767,2.118q-.807,2.609-1.344,4.754h-.524c-.061-.222-.114-.39-.155-.5-.148-.43-.491-1.39-1.029-2.872l-.827-2.273-.948,2.283c-.565,1.344-.993,2.5-1.257,3.362h-.516l-.269-1.237c-.073-.369-.162-.76-.262-1.177l-.875-3.779a1.783,1.783,0,0,0-.228-.672.625.625,0,0,0-.424-.1h-.209v-.323h2.629v.323H810.6a1.018,1.018,0,0,0-.444.06.208.208,0,0,0-.107.2,1.134,1.134,0,0,0,0,.189l.349,1.681.72,3.214Zm9.615-2.018V40.13a3.9,3.9,0,0,0,.053.759c.013.054.061.1.148.148a.874.874,0,0,0,.41.074h.343v.323q-.672-.041-1.271-.041t-1.695.041v-.323h.316c.35,0,.565-.061.625-.182a6.59,6.59,0,0,0,.1-1.64V36.237a6.061,6.061,0,0,0-.095-1.506c-.067-.114-.255-.175-.565-.175h-.323v-.323h2.966v.323h-.276a1.275,1.275,0,0,0-.585.074.33.33,0,0,0-.134.249,12.95,12.95,0,0,0-.041,1.344v1.15c.6,0,1.674.041,2.6.041.786,0,1.433,0,1.923-.041v-.993a10.138,10.138,0,0,0-.06-1.446.4.4,0,0,0-.141-.3.834.834,0,0,0-.47-.087h-.37v-.323h3.027v.323h-.364a.982.982,0,0,0-.5.08.445.445,0,0,0-.128.316V39.2a8.463,8.463,0,0,0,.087,1.728c.06.121.242.182.558.182h.39v.323c-.464,0-.941-.041-1.439-.041s-1.092,0-1.589.041v-.323h.349a.882.882,0,0,0,.5-.087.458.458,0,0,0,.134-.33c0-.35.061-.854.061-1.52V37.824c-.478,0-1.082-.034-1.822-.034-1.048,0-2.159,0-2.69.034Z" transform="translate(68.314 -611.88)" fill="#9b2325" fill-rule="evenodd"/>
    </g>
  </g>
</svg>
